<svg width="23" height="20" viewBox="0 0 23 20" fill="none" xmlns="http://www.w3.org/2000/svg">
<path d="M7.20725 20L5.19913 19.9997C4.45675 19.9972 4.30497 19.554 4.60916 18.9258C4.72599 18.6846 4.86736 18.4511 4.97228 18.2053C4.88776 17.969 4.77621 17.7074 4.63711 17.4964C4.41579 17.797 4.17655 18.3778 3.69743 18.3163C3.28734 18.2637 2.9124 18.0635 2.53373 17.9139L1.4859 17.5289C0.90572 17.329 0.362326 17.317 0.102379 16.6754L0.0824064 16.6264C-0.120814 16.1274 0.0958748 15.6209 0.259028 15.1466L1.39472 11.7153L2.95428 5.98333C3.31743 4.63391 3.88749 3.27882 5.35857 2.70742C6.32991 2.33012 7.13568 2.40873 7.72162 1.4568C8.01081 0.986963 8.19492 0.256552 8.72521 0.0745291L8.88306 0.0300375C9.20405 -0.0291477 9.54046 0.0405288 9.80948 0.215058C10.3084 0.538696 10.3813 0.938357 10.3883 1.45959C11.0743 1.79402 12.0471 1.76936 12.7972 1.60973C12.747 1.41775 12.7118 1.20043 12.7448 1.00363L12.7483 0.983907C12.8351 0.426761 13.4028 0.0503731 13.9593 0.00594007C14.6082 -0.0589168 14.949 0.417945 15.1905 0.917787L15.6285 1.76933C15.748 2.01459 15.7064 2.00293 15.9737 2.04727L17.5462 2.36074C17.801 2.41625 18.0523 2.4626 18.2902 2.57168C19.0276 2.90975 19.721 3.87358 19.9869 4.597L20.5804 6.31534L21.5659 10.2129C21.5871 10.3414 21.6319 10.4744 21.6658 10.6012L21.7616 10.9887C21.7973 11.1145 21.8422 11.2424 21.8689 11.3702L22.7314 14.6871C22.7354 14.712 22.7393 14.7306 22.7495 14.7542C22.9137 15.1344 23.0735 16.2151 22.9639 16.5517L22.9565 16.5737C22.7757 17.1315 22.3781 17.2922 21.8513 17.432C21.3521 17.5644 20.8977 17.7471 20.4353 17.9705C20.2224 18.0734 20.0104 18.188 19.7814 18.2547L19.7552 18.2622C19.1341 18.4432 18.9196 18.1777 18.5998 17.7186L18.4266 17.4902L18.1095 18.2233C17.9707 18.4919 19.4432 19.9994 17.7335 19.9998L7.20725 20ZM9.05805 0.873706C8.95153 0.928572 8.86649 1.21933 8.81384 1.3277C8.66348 1.63724 8.4725 1.92996 8.2803 2.21713C9.06302 3.14772 9.53644 4.51045 11.0017 4.51407L11.6174 4.51474C13.3091 4.51768 13.7316 4.60972 14.7227 3.06191L15.0448 2.53986L14.5797 1.69589C14.4906 1.52183 14.3149 0.964894 14.1123 0.895012C13.9383 0.835004 13.6835 0.909793 13.6318 1.09411C13.571 1.3111 13.8569 1.5779 13.7395 1.89819L13.7319 1.92032C13.3543 2.97087 9.66624 2.75979 9.49904 1.68185L9.4952 1.65822C9.47603 1.52524 9.49281 1.38545 9.49428 1.25127C9.49698 1.00656 9.30429 0.842027 9.05805 0.873706ZM7.65891 2.81016C7.2699 3.03514 6.84873 3.15904 6.416 3.28343C5.0731 3.66943 4.33706 4.25831 3.96075 5.65058L1.84261 13.3044L1.36469 14.685C1.22727 15.0459 1.08737 15.4082 0.982235 15.7791C0.770393 16.5263 1.01479 16.4825 1.62779 16.6787L2.59048 17.0096C2.91329 17.1267 3.22892 17.3065 3.56094 17.3925C3.8029 17.1358 3.96173 16.8444 4.17364 16.5717L4.17084 16.5458C4.13274 16.174 4.15928 15.7823 4.15928 15.4072L4.16366 14.2269L4.57529 10.6228L4.69767 9.94691C4.72433 9.83363 4.73973 9.71702 4.81772 9.62257C5.11516 9.26243 5.69267 9.45977 5.55943 10.1453L5.31378 11.5926L5.07481 13.809L5.06981 16.3559C5.07058 16.6167 5.15206 16.5971 5.28015 16.8194L5.65162 17.4847C5.68273 17.5401 5.72298 17.6505 5.77581 17.6819C6.06751 17.663 6.36375 17.6732 6.65628 17.6732L16.6023 17.6742C16.8022 17.6749 17.0104 17.6689 17.2081 17.6967L17.3419 17.7074L17.4665 17.4504L17.8126 16.7825C17.9029 16.6166 17.9392 16.642 17.9392 16.4405L17.9174 14.4113L17.9601 13.6423C17.968 13.434 17.964 13.3364 17.9577 13.1314L17.8149 11.038C17.7684 10.7027 17.6917 10.3549 17.6751 10.0178C17.6472 9.44666 18.3771 9.3133 18.5123 9.79907L18.5267 9.84424C18.5573 9.92135 18.5611 10.0143 18.573 10.0961L18.8071 11.9536L18.8547 12.886L18.8562 16.1623C18.8563 16.5177 18.7915 16.4115 18.9808 16.6937C19.145 16.9384 19.2972 17.2302 19.5183 17.4318L19.9686 17.2379C20.4911 16.9924 20.9875 16.7454 21.5546 16.609C21.6742 16.5802 21.8048 16.5609 21.9181 16.5139L21.9354 16.5069C22.3836 16.3126 21.7354 14.4092 21.6504 14.0748L19.6912 6.41011C19.3963 5.44411 18.8841 3.75509 17.8147 3.32322C17.5649 3.22234 17.3174 3.17664 17.0542 3.12292L15.8807 2.91316C15.7977 3.00764 15.7371 3.12701 15.6721 3.23336L15.3446 3.76097C14.7496 4.68137 13.9097 5.31551 12.747 5.4166C12.4099 5.4459 12.0502 5.42371 11.7111 5.42383C10.6542 5.42418 10.0187 5.41907 9.15307 4.72031C8.66919 4.32969 8.32067 3.79718 7.98341 3.2916L7.74893 2.94519C7.71899 2.90293 7.69352 2.84789 7.65891 2.81016ZM5.99575 18.5895C5.57164 18.6266 5.67009 18.9611 5.49761 19.1225L17.0158 19.1161L17.4998 19.0889C17.2533 18.6911 17.3053 18.5909 16.8106 18.589L5.99575 18.5895Z" fill="#8A8A8A"/>
</svg>
