<svg width="35" height="31" viewBox="0 0 35 31" fill="none" xmlns="http://www.w3.org/2000/svg">
<path d="M9.85825 28.4168H25.1416C29.1666 28.4168 30.7708 26.2339 30.9603 23.5731L31.7187 12.9039C31.9228 10.1139 29.4145 7.75016 26.2499 7.75016C25.3603 7.75016 24.5437 7.29808 24.1353 6.60058L23.0853 4.72766C22.4145 3.55225 20.6645 2.5835 19.177 2.5835H15.8374C14.3353 2.5835 12.5853 3.55225 11.9145 4.72766L10.8645 6.60058C10.4562 7.29808 9.6395 7.75016 8.74992 7.75016C5.58534 7.75016 3.077 10.1139 3.28117 12.9039L4.0395 23.5731C4.2145 26.2339 5.83325 28.4168 9.85825 28.4168Z" stroke="#8A8A8A" stroke-width="1.5" stroke-linecap="round" stroke-linejoin="round"/>
<path d="M15.3125 10.3335H19.6875" stroke="#8A8A8A" stroke-width="1.5" stroke-linecap="round" stroke-linejoin="round"/>
<path d="M17.5001 23.2498C20.1105 23.2498 22.2397 21.364 22.2397 19.0519C22.2397 16.7398 20.1105 14.854 17.5001 14.854C14.8897 14.854 12.7605 16.7398 12.7605 19.0519C12.7605 21.364 14.8897 23.2498 17.5001 23.2498Z" stroke="#8A8A8A" stroke-width="1.5" stroke-linecap="round" stroke-linejoin="round"/>
</svg>
