<svg width="14" height="14" viewBox="0 0 14 14" fill="none" xmlns="http://www.w3.org/2000/svg">
<path opacity="0.4" d="M12.0226 6.3176C11.5734 5.78093 10.9959 5.43093 10.3251 5.27927C10.1734 4.6026 9.91094 4.01927 9.52594 3.5351C9.51427 3.5176 9.50261 3.5001 9.49094 3.48843C8.20761 1.93677 6.10761 1.9426 4.69011 2.7476C3.47677 3.44177 2.44427 4.90593 2.98677 6.99427C1.74427 7.2976 1.17261 8.3826 1.17261 9.3626C1.17261 10.4593 1.89011 11.6901 3.48844 11.8068H9.52011C9.52594 11.8068 9.53761 11.8068 9.54344 11.8068C10.3718 11.8068 11.1651 11.4976 11.7776 10.9376C13.2418 9.6426 13.0493 7.53093 12.0226 6.3176Z" fill="white"/>
<path d="M12.6934 5.09844C12.6934 5.62344 12.5067 6.12511 12.1684 6.51011C12.1276 6.44594 12.0751 6.38177 12.0226 6.31761C11.5792 5.78677 10.9959 5.42511 10.3251 5.27927C10.1792 4.60261 9.91089 4.02511 9.52589 3.54094C9.52006 3.52344 9.50256 3.50594 9.49089 3.49427C9.43256 3.42427 9.36839 3.36011 9.31006 3.29594C9.66589 3.05094 10.0742 2.92261 10.5176 2.92261C11.7192 2.92261 12.6934 3.89677 12.6934 5.09844Z" fill="white"/>
</svg>
