<svg width="35" height="35" viewBox="0 0 35 35" fill="none" xmlns="http://www.w3.org/2000/svg">
<path opacity="0.4" d="M23.5811 14.6708H11.4186C9.69776 14.6708 9.09985 13.5187 10.1061 12.1187L16.1874 3.60205C16.902 2.58122 18.0978 2.58122 18.8124 3.60205L24.8936 12.1187C25.8999 13.5187 25.302 14.6708 23.5811 14.6708Z" fill="#1BF6AD"/>
<path d="M25.652 26.2501H9.34783C7.04366 26.2501 6.25615 24.7188 7.6124 22.8521L13.4311 14.6709H21.5687L27.3874 22.8521C28.7437 24.7188 27.9561 26.2501 25.652 26.2501Z" fill="#1BF6AD"/>
<path d="M18.5938 26.25V32.0833C18.5938 32.6813 18.0979 33.1771 17.5 33.1771C16.9021 33.1771 16.4062 32.6813 16.4062 32.0833V26.25H18.5938Z" fill="#1BF6AD"/>
</svg>
